<mxfile host="Electron" modified="2024-05-03T15:56:43.808Z" agent="Mozilla/5.0 (Windows NT 10.0; Win64; x64) AppleWebKit/537.36 (KHTML, like Gecko) draw.io/24.2.5 Chrome/120.0.6099.109 Electron/28.1.0 Safari/537.36" etag="tZKJeMYcXDe9mdAjw_1i" version="24.2.5" type="device">
  <diagram name="Page-1" id="llmE26Dp3h0yu5O7jasi">
    <mxGraphModel dx="1900" dy="669" grid="1" gridSize="10" guides="1" tooltips="1" connect="1" arrows="1" fold="1" page="1" pageScale="1" pageWidth="850" pageHeight="1100" math="0" shadow="0">
      <root>
        <mxCell id="0" />
        <mxCell id="1" parent="0" />
        <mxCell id="xMvwwdJwh0l4iQJEHcCo-62" style="edgeStyle=orthogonalEdgeStyle;rounded=0;orthogonalLoop=1;jettySize=auto;html=1;entryX=0.5;entryY=0;entryDx=0;entryDy=0;exitX=0.5;exitY=0;exitDx=0;exitDy=0;" parent="1" source="xMvwwdJwh0l4iQJEHcCo-39" target="xMvwwdJwh0l4iQJEHcCo-42" edge="1">
          <mxGeometry relative="1" as="geometry" />
        </mxCell>
        <mxCell id="xMvwwdJwh0l4iQJEHcCo-63" value="Customer Information" style="edgeLabel;html=1;align=center;verticalAlign=middle;resizable=0;points=[];" parent="xMvwwdJwh0l4iQJEHcCo-62" vertex="1" connectable="0">
          <mxGeometry x="-0.2451" relative="1" as="geometry">
            <mxPoint as="offset" />
          </mxGeometry>
        </mxCell>
        <mxCell id="xMvwwdJwh0l4iQJEHcCo-39" value="1.1&lt;br&gt;" style="swimlane;whiteSpace=wrap;html=1;startSize=23;" parent="1" vertex="1">
          <mxGeometry y="100" width="200" height="60" as="geometry" />
        </mxCell>
        <mxCell id="xMvwwdJwh0l4iQJEHcCo-40" value="Manage Customer Information" style="text;html=1;align=center;verticalAlign=middle;resizable=0;points=[];autosize=1;strokeColor=none;fillColor=none;" parent="xMvwwdJwh0l4iQJEHcCo-39" vertex="1">
          <mxGeometry x="5" y="30" width="190" height="30" as="geometry" />
        </mxCell>
        <mxCell id="xMvwwdJwh0l4iQJEHcCo-69" style="edgeStyle=orthogonalEdgeStyle;rounded=0;orthogonalLoop=1;jettySize=auto;html=1;entryX=0.5;entryY=0;entryDx=0;entryDy=0;endArrow=open;endFill=0;exitX=0.75;exitY=0;exitDx=0;exitDy=0;" parent="1" source="xMvwwdJwh0l4iQJEHcCo-42" target="xMvwwdJwh0l4iQJEHcCo-54" edge="1">
          <mxGeometry relative="1" as="geometry" />
        </mxCell>
        <mxCell id="xMvwwdJwh0l4iQJEHcCo-70" value="Customer Information" style="edgeLabel;html=1;align=center;verticalAlign=middle;resizable=0;points=[];" parent="xMvwwdJwh0l4iQJEHcCo-69" vertex="1" connectable="0">
          <mxGeometry x="0.1408" y="2" relative="1" as="geometry">
            <mxPoint as="offset" />
          </mxGeometry>
        </mxCell>
        <mxCell id="xMvwwdJwh0l4iQJEHcCo-76" style="edgeStyle=orthogonalEdgeStyle;rounded=0;orthogonalLoop=1;jettySize=auto;html=1;exitX=0;exitY=0.5;exitDx=0;exitDy=0;entryX=1;entryY=0.5;entryDx=0;entryDy=0;endArrow=open;endFill=0;" parent="1" source="xMvwwdJwh0l4iQJEHcCo-49" target="xMvwwdJwh0l4iQJEHcCo-45" edge="1">
          <mxGeometry relative="1" as="geometry">
            <Array as="points">
              <mxPoint x="273" y="210" />
              <mxPoint x="273" y="260" />
            </Array>
          </mxGeometry>
        </mxCell>
        <mxCell id="xMvwwdJwh0l4iQJEHcCo-77" value="Category list" style="edgeLabel;html=1;align=center;verticalAlign=middle;resizable=0;points=[];" parent="xMvwwdJwh0l4iQJEHcCo-76" vertex="1" connectable="0">
          <mxGeometry x="-0.1207" y="2" relative="1" as="geometry">
            <mxPoint as="offset" />
          </mxGeometry>
        </mxCell>
        <mxCell id="xMvwwdJwh0l4iQJEHcCo-42" value="Customer Database" style="shape=partialRectangle;whiteSpace=wrap;html=1;left=0;right=0;fillColor=none;" parent="1" vertex="1">
          <mxGeometry x="345" y="110" width="160" height="40" as="geometry" />
        </mxCell>
        <mxCell id="xMvwwdJwh0l4iQJEHcCo-43" style="edgeStyle=orthogonalEdgeStyle;rounded=0;orthogonalLoop=1;jettySize=auto;html=1;exitX=0.5;exitY=1;exitDx=0;exitDy=0;" parent="1" source="xMvwwdJwh0l4iQJEHcCo-42" target="xMvwwdJwh0l4iQJEHcCo-42" edge="1">
          <mxGeometry relative="1" as="geometry" />
        </mxCell>
        <mxCell id="xMvwwdJwh0l4iQJEHcCo-71" style="edgeStyle=orthogonalEdgeStyle;rounded=0;orthogonalLoop=1;jettySize=auto;html=1;endArrow=open;endFill=0;" parent="1" source="xMvwwdJwh0l4iQJEHcCo-45" target="xMvwwdJwh0l4iQJEHcCo-40" edge="1">
          <mxGeometry relative="1" as="geometry" />
        </mxCell>
        <mxCell id="xMvwwdJwh0l4iQJEHcCo-72" value="Customer&amp;nbsp;&lt;br&gt;Information" style="edgeLabel;html=1;align=center;verticalAlign=middle;resizable=0;points=[];" parent="xMvwwdJwh0l4iQJEHcCo-71" vertex="1" connectable="0">
          <mxGeometry x="-0.255" y="-1" relative="1" as="geometry">
            <mxPoint as="offset" />
          </mxGeometry>
        </mxCell>
        <mxCell id="xMvwwdJwh0l4iQJEHcCo-97" style="edgeStyle=orthogonalEdgeStyle;rounded=0;orthogonalLoop=1;jettySize=auto;html=1;entryX=0;entryY=0.5;entryDx=0;entryDy=0;endArrow=open;endFill=0;" parent="1" source="xMvwwdJwh0l4iQJEHcCo-45" target="xMvwwdJwh0l4iQJEHcCo-47" edge="1">
          <mxGeometry relative="1" as="geometry">
            <Array as="points">
              <mxPoint x="-20" y="260" />
              <mxPoint x="-20" y="395" />
            </Array>
          </mxGeometry>
        </mxCell>
        <mxCell id="xMvwwdJwh0l4iQJEHcCo-98" value="Rental Details" style="edgeLabel;html=1;align=center;verticalAlign=middle;resizable=0;points=[];" parent="xMvwwdJwh0l4iQJEHcCo-97" vertex="1" connectable="0">
          <mxGeometry x="0.3008" y="3" relative="1" as="geometry">
            <mxPoint as="offset" />
          </mxGeometry>
        </mxCell>
        <mxCell id="xMvwwdJwh0l4iQJEHcCo-45" value="Customer" style="rounded=0;whiteSpace=wrap;html=1;" parent="1" vertex="1">
          <mxGeometry y="240" width="200" height="40" as="geometry" />
        </mxCell>
        <mxCell id="xMvwwdJwh0l4iQJEHcCo-78" style="edgeStyle=orthogonalEdgeStyle;rounded=0;orthogonalLoop=1;jettySize=auto;html=1;entryX=0;entryY=0.5;entryDx=0;entryDy=0;endArrow=open;endFill=0;" parent="1" source="xMvwwdJwh0l4iQJEHcCo-47" target="xMvwwdJwh0l4iQJEHcCo-50" edge="1">
          <mxGeometry relative="1" as="geometry" />
        </mxCell>
        <mxCell id="xMvwwdJwh0l4iQJEHcCo-79" value="Rental Information" style="edgeLabel;html=1;align=center;verticalAlign=middle;resizable=0;points=[];" parent="xMvwwdJwh0l4iQJEHcCo-78" vertex="1" connectable="0">
          <mxGeometry x="0.2125" y="3" relative="1" as="geometry">
            <mxPoint as="offset" />
          </mxGeometry>
        </mxCell>
        <mxCell id="xMvwwdJwh0l4iQJEHcCo-47" value="1.3" style="swimlane;whiteSpace=wrap;html=1;" parent="1" vertex="1">
          <mxGeometry y="370" width="200" height="70" as="geometry" />
        </mxCell>
        <mxCell id="xMvwwdJwh0l4iQJEHcCo-48" value="Manage Booking Records" style="text;html=1;align=center;verticalAlign=middle;resizable=0;points=[];autosize=1;strokeColor=none;fillColor=none;" parent="xMvwwdJwh0l4iQJEHcCo-47" vertex="1">
          <mxGeometry x="20" y="30" width="160" height="30" as="geometry" />
        </mxCell>
        <mxCell id="xMvwwdJwh0l4iQJEHcCo-82" style="edgeStyle=orthogonalEdgeStyle;rounded=0;orthogonalLoop=1;jettySize=auto;html=1;entryX=0;entryY=0.5;entryDx=0;entryDy=0;endArrow=open;endFill=0;" parent="1" source="xMvwwdJwh0l4iQJEHcCo-49" target="xMvwwdJwh0l4iQJEHcCo-52" edge="1">
          <mxGeometry relative="1" as="geometry" />
        </mxCell>
        <mxCell id="xMvwwdJwh0l4iQJEHcCo-83" value="Car Category&lt;div&gt;&amp;nbsp;List&lt;/div&gt;" style="edgeLabel;html=1;align=center;verticalAlign=middle;resizable=0;points=[];" parent="xMvwwdJwh0l4iQJEHcCo-82" vertex="1" connectable="0">
          <mxGeometry x="-0.1418" y="1" relative="1" as="geometry">
            <mxPoint as="offset" />
          </mxGeometry>
        </mxCell>
        <mxCell id="xMvwwdJwh0l4iQJEHcCo-49" value="Car Database" style="shape=partialRectangle;whiteSpace=wrap;html=1;left=0;right=0;fillColor=none;" parent="1" vertex="1">
          <mxGeometry x="350" y="190" width="160" height="40" as="geometry" />
        </mxCell>
        <mxCell id="xMvwwdJwh0l4iQJEHcCo-84" style="edgeStyle=orthogonalEdgeStyle;rounded=0;orthogonalLoop=1;jettySize=auto;html=1;entryX=0;entryY=0.25;entryDx=0;entryDy=0;endArrow=open;endFill=0;" parent="1" source="xMvwwdJwh0l4iQJEHcCo-50" target="xMvwwdJwh0l4iQJEHcCo-59" edge="1">
          <mxGeometry relative="1" as="geometry" />
        </mxCell>
        <mxCell id="xMvwwdJwh0l4iQJEHcCo-85" value="Rental Details" style="edgeLabel;html=1;align=center;verticalAlign=middle;resizable=0;points=[];" parent="xMvwwdJwh0l4iQJEHcCo-84" vertex="1" connectable="0">
          <mxGeometry x="-0.1274" relative="1" as="geometry">
            <mxPoint as="offset" />
          </mxGeometry>
        </mxCell>
        <mxCell id="xMvwwdJwh0l4iQJEHcCo-50" value="Rental&amp;nbsp; Database" style="shape=partialRectangle;whiteSpace=wrap;html=1;left=0;right=0;fillColor=none;" parent="1" vertex="1">
          <mxGeometry x="350" y="270" width="160" height="40" as="geometry" />
        </mxCell>
        <mxCell id="xMvwwdJwh0l4iQJEHcCo-80" style="edgeStyle=orthogonalEdgeStyle;rounded=0;orthogonalLoop=1;jettySize=auto;html=1;exitX=0.25;exitY=1;exitDx=0;exitDy=0;entryX=1;entryY=0.75;entryDx=0;entryDy=0;endArrow=open;endFill=0;" parent="1" source="xMvwwdJwh0l4iQJEHcCo-51" target="xMvwwdJwh0l4iQJEHcCo-47" edge="1">
          <mxGeometry relative="1" as="geometry" />
        </mxCell>
        <mxCell id="xMvwwdJwh0l4iQJEHcCo-81" value="Confirmation" style="edgeLabel;html=1;align=center;verticalAlign=middle;resizable=0;points=[];" parent="xMvwwdJwh0l4iQJEHcCo-80" vertex="1" connectable="0">
          <mxGeometry x="-0.1697" relative="1" as="geometry">
            <mxPoint as="offset" />
          </mxGeometry>
        </mxCell>
        <mxCell id="xMvwwdJwh0l4iQJEHcCo-51" value="Transaction Database" style="shape=partialRectangle;whiteSpace=wrap;html=1;left=0;right=0;fillColor=none;" parent="1" vertex="1">
          <mxGeometry x="350" y="345" width="160" height="40" as="geometry" />
        </mxCell>
        <mxCell id="xMvwwdJwh0l4iQJEHcCo-89" style="edgeStyle=orthogonalEdgeStyle;rounded=0;orthogonalLoop=1;jettySize=auto;html=1;entryX=0.5;entryY=0;entryDx=0;entryDy=0;endArrow=open;endFill=0;" parent="1" source="xMvwwdJwh0l4iQJEHcCo-52" target="xMvwwdJwh0l4iQJEHcCo-59" edge="1">
          <mxGeometry relative="1" as="geometry" />
        </mxCell>
        <mxCell id="xMvwwdJwh0l4iQJEHcCo-90" value="Transaction&lt;br&gt;Information&lt;br&gt;" style="edgeLabel;html=1;align=center;verticalAlign=middle;resizable=0;points=[];" parent="xMvwwdJwh0l4iQJEHcCo-89" vertex="1" connectable="0">
          <mxGeometry x="-0.2975" y="-1" relative="1" as="geometry">
            <mxPoint as="offset" />
          </mxGeometry>
        </mxCell>
        <mxCell id="WY7kaTn6nSmVJPcxBOo_-27" value="" style="edgeStyle=orthogonalEdgeStyle;rounded=0;orthogonalLoop=1;jettySize=auto;html=1;entryX=1;entryY=0.5;entryDx=0;entryDy=0;" edge="1" parent="1" target="xMvwwdJwh0l4iQJEHcCo-94">
          <mxGeometry relative="1" as="geometry">
            <mxPoint x="890" y="260" as="sourcePoint" />
            <mxPoint x="920" y="480" as="targetPoint" />
            <Array as="points">
              <mxPoint x="960" y="260" />
              <mxPoint x="960" y="485" />
            </Array>
          </mxGeometry>
        </mxCell>
        <mxCell id="xMvwwdJwh0l4iQJEHcCo-52" value="Admin" style="rounded=0;whiteSpace=wrap;html=1;" parent="1" vertex="1">
          <mxGeometry x="680" y="240" width="210" height="40" as="geometry" />
        </mxCell>
        <mxCell id="xMvwwdJwh0l4iQJEHcCo-54" value="1.2" style="swimlane;whiteSpace=wrap;html=1;startSize=23;" parent="1" vertex="1">
          <mxGeometry x="680" y="100" width="200" height="65" as="geometry" />
        </mxCell>
        <mxCell id="xMvwwdJwh0l4iQJEHcCo-55" value="Manage Car&lt;div&gt;&amp;nbsp;Information&lt;/div&gt;" style="text;html=1;align=center;verticalAlign=middle;resizable=0;points=[];autosize=1;strokeColor=none;fillColor=none;" parent="xMvwwdJwh0l4iQJEHcCo-54" vertex="1">
          <mxGeometry x="55" y="25" width="90" height="40" as="geometry" />
        </mxCell>
        <mxCell id="xMvwwdJwh0l4iQJEHcCo-59" value="1.4" style="swimlane;whiteSpace=wrap;html=1;startSize=23;" parent="1" vertex="1">
          <mxGeometry x="680" y="375" width="200" height="60" as="geometry" />
        </mxCell>
        <mxCell id="xMvwwdJwh0l4iQJEHcCo-60" value="Manage Transactions" style="text;html=1;align=center;verticalAlign=middle;resizable=0;points=[];autosize=1;strokeColor=none;fillColor=none;" parent="xMvwwdJwh0l4iQJEHcCo-59" vertex="1">
          <mxGeometry x="30" y="30" width="140" height="30" as="geometry" />
        </mxCell>
        <mxCell id="xMvwwdJwh0l4iQJEHcCo-87" style="edgeStyle=orthogonalEdgeStyle;rounded=0;orthogonalLoop=1;jettySize=auto;html=1;entryX=0.5;entryY=0;entryDx=0;entryDy=0;endArrow=open;endFill=0;" parent="1" source="xMvwwdJwh0l4iQJEHcCo-55" target="xMvwwdJwh0l4iQJEHcCo-52" edge="1">
          <mxGeometry relative="1" as="geometry" />
        </mxCell>
        <mxCell id="xMvwwdJwh0l4iQJEHcCo-88" value="Customer&lt;br&gt;Informattion" style="edgeLabel;html=1;align=center;verticalAlign=middle;resizable=0;points=[];" parent="xMvwwdJwh0l4iQJEHcCo-87" vertex="1" connectable="0">
          <mxGeometry x="-0.2917" relative="1" as="geometry">
            <mxPoint as="offset" />
          </mxGeometry>
        </mxCell>
        <mxCell id="xMvwwdJwh0l4iQJEHcCo-93" value="" style="endArrow=classic;html=1;rounded=0;" parent="1" edge="1">
          <mxGeometry width="50" height="50" relative="1" as="geometry">
            <mxPoint x="719.41" y="485" as="sourcePoint" />
            <mxPoint x="719.41" y="435" as="targetPoint" />
          </mxGeometry>
        </mxCell>
        <mxCell id="xMvwwdJwh0l4iQJEHcCo-94" value="Transaction Details" style="text;html=1;strokeColor=none;fillColor=none;align=center;verticalAlign=middle;whiteSpace=wrap;rounded=0;" parent="1" vertex="1">
          <mxGeometry x="730" y="470" width="60" height="30" as="geometry" />
        </mxCell>
        <mxCell id="xMvwwdJwh0l4iQJEHcCo-95" value="" style="endArrow=classic;html=1;rounded=0;" parent="1" edge="1">
          <mxGeometry width="50" height="50" relative="1" as="geometry">
            <mxPoint x="480" y="435" as="sourcePoint" />
            <mxPoint x="480" y="385.0000000000001" as="targetPoint" />
          </mxGeometry>
        </mxCell>
        <mxCell id="xMvwwdJwh0l4iQJEHcCo-96" value="Updates" style="text;html=1;strokeColor=none;fillColor=none;align=center;verticalAlign=middle;whiteSpace=wrap;rounded=0;" parent="1" vertex="1">
          <mxGeometry x="450" y="435" width="60" height="30" as="geometry" />
        </mxCell>
        <mxCell id="WY7kaTn6nSmVJPcxBOo_-8" value="" style="endArrow=classic;html=1;rounded=0;exitX=0.5;exitY=1;exitDx=0;exitDy=0;entryX=0.5;entryY=0;entryDx=0;entryDy=0;" edge="1" parent="1" source="xMvwwdJwh0l4iQJEHcCo-45" target="xMvwwdJwh0l4iQJEHcCo-47">
          <mxGeometry width="50" height="50" relative="1" as="geometry">
            <mxPoint x="110" y="440" as="sourcePoint" />
            <mxPoint x="160" y="390" as="targetPoint" />
          </mxGeometry>
        </mxCell>
        <mxCell id="WY7kaTn6nSmVJPcxBOo_-9" value="Car Chosen" style="edgeLabel;html=1;align=center;verticalAlign=middle;resizable=0;points=[];" vertex="1" connectable="0" parent="WY7kaTn6nSmVJPcxBOo_-8">
          <mxGeometry x="-0.0089" y="1" relative="1" as="geometry">
            <mxPoint as="offset" />
          </mxGeometry>
        </mxCell>
        <mxCell id="WY7kaTn6nSmVJPcxBOo_-21" style="edgeStyle=orthogonalEdgeStyle;rounded=0;orthogonalLoop=1;jettySize=auto;html=1;" edge="1" parent="1">
          <mxGeometry relative="1" as="geometry">
            <mxPoint x="1000" y="505" as="sourcePoint" />
            <mxPoint x="1000" y="525" as="targetPoint" />
          </mxGeometry>
        </mxCell>
        <mxCell id="WY7kaTn6nSmVJPcxBOo_-28" style="edgeStyle=orthogonalEdgeStyle;rounded=0;orthogonalLoop=1;jettySize=auto;html=1;" edge="1" parent="1">
          <mxGeometry relative="1" as="geometry">
            <mxPoint x="1020" y="260" as="targetPoint" />
            <mxPoint x="1030" y="260" as="sourcePoint" />
          </mxGeometry>
        </mxCell>
        <mxCell id="WY7kaTn6nSmVJPcxBOo_-30" value="DATA FLOW DIAGRAM -LEVEL 2" style="text;html=1;align=center;verticalAlign=middle;resizable=0;points=[];autosize=1;strokeColor=none;fillColor=none;" vertex="1" parent="1">
          <mxGeometry x="230" y="538" width="200" height="30" as="geometry" />
        </mxCell>
      </root>
    </mxGraphModel>
  </diagram>
</mxfile>
